<svg width="131" height="25" viewBox="0 0 131 25" fill="none" xmlns="http://www.w3.org/2000/svg">
<mask id="mask0_4_166" style="mask-type:luminance" maskUnits="userSpaceOnUse" x="0" y="0" width="131" height="25">
<path d="M131 0H0V25H131V0Z" fill="white"/>
</mask>
<g mask="url(#mask0_4_166)">
<path d="M49.2335 18.4507C48.9271 17.754 48.6366 17.0506 48.3441 16.3481C46.9334 12.98 45.525 9.6094 44.119 6.2362C44.0275 6.016 43.915 5.9536 43.6842 5.9546C41.5539 5.963 39.4239 5.963 37.2943 5.9546C37.0376 5.9546 36.9093 5.9916 36.9252 6.2869C36.9511 6.7692 36.9441 7.2534 36.9252 7.7357C36.9173 7.9764 36.9998 8.0426 37.2376 8.0378C37.8862 8.0232 38.5359 8.0436 39.1835 8.028C39.5039 8.0202 39.5277 8.1108 39.4123 8.3817C38.6354 10.2125 37.8713 12.0492 37.1043 13.8839C36.4397 15.475 35.7772 17.0671 35.0837 18.7294C36.1452 18.7294 37.1451 18.7226 38.1459 18.7294C38.3588 18.7294 38.3966 18.6115 38.4523 18.4634C38.709 17.7813 38.9816 17.0993 39.2283 16.4114C39.3109 16.1844 39.4133 16.0811 39.677 16.083C41.3284 16.0947 42.9792 16.0947 44.6293 16.083C44.8651 16.083 44.9765 16.1512 45.0561 16.3753C45.2969 17.0525 45.5645 17.7209 45.8222 18.3932C45.8908 18.5725 45.9415 18.7381 46.2151 18.7323C47.1602 18.7157 48.1054 18.7196 49.0505 18.7323C49.3121 18.7372 49.327 18.6641 49.2335 18.4507ZM43.6743 13.7816C42.6476 13.7621 41.6199 13.7738 40.5902 13.7767C40.3913 13.7767 40.251 13.7767 40.3525 13.5127C40.9156 12.0609 41.4687 10.6052 42.0278 9.1534C42.0635 9.0853 42.1048 9.0202 42.1512 8.9585C42.4357 9.6747 42.7053 10.3509 42.9719 11.0281C43.2833 11.8251 43.5857 12.625 43.9031 13.4201C44.0016 13.6657 44.0205 13.7894 43.6743 13.7816Z" fill="black"/>
<path d="M60.3637 9.65559C60.3637 9.41299 60.2742 9.35159 60.0424 9.35459C59.2963 9.36629 58.5501 9.36819 57.801 9.35459C57.5523 9.35459 57.4826 9.44319 57.4956 9.67029C57.5105 9.93919 57.4956 10.211 57.4956 10.5998C55.8501 8.50009 52.3313 8.78259 50.8977 10.8921C50.08 12.0906 49.9099 13.4254 50.1078 14.8168C50.5058 17.6317 53.2187 19.2628 55.9108 18.3118C56.4729 18.117 56.9225 17.7525 57.3901 17.24C57.3901 17.585 57.3901 17.8149 57.3901 18.0439C57.3762 19.2131 56.8101 19.9293 55.6581 20.2342C54.5697 20.5217 53.5082 20.3589 52.4587 20.0394C51.9364 19.8796 51.4638 19.6116 50.9216 19.3047C50.9216 19.9867 50.9445 20.585 50.9137 21.1862C50.8967 21.5175 51.0201 21.686 51.3176 21.8137C53.1721 22.6392 55.2675 22.7858 57.223 22.2268C59.157 21.6919 60.307 20.2303 60.3379 18.2699C60.3816 15.3946 60.3538 12.5261 60.3637 9.65559ZM57.0419 15.8204C56.4854 16.2058 55.8137 16.3988 55.1328 16.369C53.8146 16.3066 52.969 15.2611 53.0168 13.7781C53.0576 12.5553 53.6137 11.7096 54.6205 11.4709C55.5775 11.2419 56.456 11.4631 57.2339 12.0652C57.2927 12.1113 57.3387 12.1712 57.3674 12.2394C57.3961 12.3075 57.4066 12.3817 57.3981 12.455C57.3921 12.9227 57.3981 13.3913 57.3981 13.859C57.3981 14.2868 57.3732 14.7155 57.407 15.1403C57.4289 15.4628 57.2926 15.6538 57.0419 15.8204Z" fill="black"/>
<path d="M93.6365 11.3124C92.7063 9.4806 90.4798 8.6865 88.516 9.3754C87.9784 9.5791 87.5001 9.909 87.1232 10.3361C86.9909 10.1724 87.0416 10.0302 87.0406 9.8986C87.0406 8.5599 87.0336 7.2211 87.0406 5.8823C87.0406 5.6485 87.0058 5.5345 86.7233 5.5413C85.9343 5.5598 85.1444 5.5559 84.3545 5.5413C84.1098 5.5413 84.0471 5.6193 84.0481 5.8492C84.0541 10.0467 84.0541 14.2433 84.0481 18.4388C84.0481 18.6337 84.076 18.7389 84.3177 18.7311C85.093 18.7162 85.8683 18.7162 86.6437 18.7311C86.8804 18.7311 86.9282 18.6425 86.9173 18.4388C86.9033 18.1709 86.9173 17.901 86.9173 17.5395C87.1451 17.7665 87.2883 17.9293 87.4515 18.0686C89.1159 19.5126 92.0626 19.1404 93.341 17.2482C94.6194 15.356 94.6542 13.3196 93.6365 11.3124ZM90.4918 16.1608C89.6033 16.9403 88.0046 16.7454 87.1093 15.9425C86.9988 15.8451 87.0317 15.7136 87.0307 15.5937C87.0307 15.0685 87.0307 14.5434 87.0307 14.0201C87.0307 13.5641 87.0585 13.1062 87.0217 12.656C86.9939 12.3043 87.1401 12.1007 87.4197 11.9107C88.4354 11.214 89.8779 11.2812 90.644 12.0763C91.6169 13.0857 91.5403 15.2332 90.4918 16.1608Z" fill="black"/>
<path d="M12.5541 24.8242C12.5471 24.872 12.5401 24.9217 12.5322 24.9665C12.3929 24.9752 12.2526 24.9908 12.1123 24.9908C8.2324 24.9908 4.3525 24.9908 0.479542 24.9996C0.133332 24.9996 -0.00196839 24.9548 2.16056e-05 24.5602C0.0189216 20.7504 0.0109616 16.9397 0.0119616 13.129C0.0119616 13.0053 0.0209117 12.8806 0.0258917 12.7568L0.245752 12.7627C0.320362 12.825 0.397962 12.8845 0.467602 12.9517C4.43175 16.8368 8.3956 20.7225 12.3591 24.6089C12.4287 24.6771 12.4894 24.7482 12.5541 24.8242Z" fill="#00CD69"/>
<path d="M12.5512 0.194901C12.4766 0.277701 12.4069 0.363401 12.3273 0.441401C8.3751 4.3141 4.42224 8.1878 0.468711 12.0625C0.399071 12.1288 0.321471 12.1892 0.246851 12.2515H0.0260012L0.0110712 1.5794C0.0100812 1.1692 0.0289811 0.7512 0.000131131 0.3381C-0.0118089 0.0565004 0.0996213 0 0.362261 0C2.26441 0.0097 4.16656 2.47266e-07 6.06872 0.00580025C8.2236 0.00580025 10.3791 0.0104007 12.5352 0.0195007C12.5402 0.0760007 12.5452 0.133501 12.5512 0.194901Z" fill="#00CD69"/>
<path d="M25.1908 24.9986C21.159 24.9888 17.1265 24.9856 13.0934 24.9888C13.0514 24.9856 13.0097 24.9784 12.9691 24.9674C12.9631 24.9226 12.9581 24.8778 12.9521 24.8329C13.0158 24.7608 13.0775 24.6848 13.1451 24.6166L25.0406 12.9585C25.1202 12.8815 25.2077 12.8114 25.2913 12.7393L25.4753 12.8367C25.48 14.8796 25.4846 16.9225 25.4893 18.9654C25.4893 20.8566 25.4893 22.7478 25.4893 24.639C25.4932 24.8554 25.4922 24.9996 25.1908 24.9986Z" fill="#00CD69"/>
<path d="M25.4961 0.299002C25.4815 4.2841 25.4742 8.2689 25.4742 12.2533L25.2912 12.2679C25.2076 12.1958 25.1191 12.1266 25.0405 12.0497C21.0863 8.1737 17.1331 4.2977 13.1809 0.421702C13.1013 0.344702 13.0316 0.259004 12.958 0.176204C12.958 0.124504 12.963 0.0719032 12.967 0.0193032C15.8262 0.0141032 18.685 0.00920241 21.5436 0.00470241C22.7374 0.00470241 23.9372 0.00470241 25.134 0.00470241C25.3558 -0.00019759 25.4971 0.0086025 25.4961 0.299002Z" fill="#00CD69"/>
<path d="M130.895 18.656C130.696 18.8908 130.179 18.7213 129.8 18.7281C129.166 18.7398 128.53 18.7203 127.896 18.7369C127.793 18.7464 127.69 18.7263 127.599 18.6788C127.508 18.6313 127.433 18.5587 127.384 18.4699C126.677 17.4059 125.94 16.3614 125.25 15.2886C125.025 14.9378 124.776 14.816 124.363 14.8336C123.608 14.8677 123.607 14.8433 123.607 15.5741C123.607 16.5134 123.597 17.4527 123.614 18.3919C123.614 18.6628 123.541 18.7437 123.264 18.7369C122.502 18.72 121.739 18.72 120.976 18.7369C120.716 18.7369 120.611 18.693 120.612 18.4036C120.622 14.2327 120.622 10.0622 120.612 5.89187C120.612 5.62297 120.682 5.53438 120.965 5.54118C121.697 5.55968 122.431 5.56548 123.164 5.54118C123.51 5.52848 123.613 5.61908 123.611 5.96888C123.594 8.09498 123.611 10.2229 123.593 12.348C123.593 12.7027 123.706 12.7475 124.038 12.7816C124.692 12.8488 125.085 12.6277 125.425 12.0693C125.937 11.2295 126.565 10.4597 127.124 9.64808C127.266 9.44248 127.409 9.34988 127.667 9.35578C128.514 9.37328 129.359 9.36158 130.303 9.36158C129.57 10.3847 128.885 11.3405 128.201 12.2954C128.087 12.4542 127.971 12.6101 127.859 12.7689C127.304 13.5562 127.303 13.5572 127.869 14.362C128.333 15.0197 128.82 15.6628 129.262 16.336C129.478 16.6654 129.721 16.7862 130.121 16.7706C130.956 16.7375 130.959 16.7599 130.955 17.5842C130.96 17.9505 131.085 18.4368 130.895 18.656Z" fill="black"/>
<path d="M106.076 16.9467C105.336 17.0062 105.145 16.8132 105.142 16.0854C105.142 14.9162 105.161 13.7382 105.128 12.566C105.094 11.4085 104.584 10.4478 103.542 9.90119C101.259 8.70269 98.956 8.96679 96.6778 9.98689C96.6207 10.0113 96.5728 10.0526 96.5409 10.1051C96.5089 10.1575 96.4946 10.2184 96.4997 10.2792C96.5057 10.9418 96.4997 11.6034 96.4997 12.3098C96.5572 12.2974 96.6137 12.2811 96.6689 12.2611C96.7813 12.2026 96.8907 12.1402 97.0012 12.0798C98.195 11.429 99.47 11.163 100.828 11.389C101.668 11.5283 102.169 12.0808 102.245 12.8593C102.276 13.1701 102.251 13.289 101.857 13.213C100.365 12.9207 98.882 12.9353 97.4598 13.5414C95.5129 14.3715 95.0811 16.5619 96.5644 17.9825C97.9333 19.2871 100.949 19.255 102.108 17.964C102.284 17.7691 102.375 17.736 102.517 17.999C102.674 18.2804 102.921 18.5043 103.219 18.6372C104.183 19.0971 105.156 19.0124 106.132 18.6752C106.3 18.6168 106.319 18.496 106.317 18.3479C106.317 17.9581 106.317 17.5752 106.317 17.1874C106.33 17.0179 106.32 16.9282 106.076 16.9467ZM101.726 16.5414C100.993 17.0013 100.211 17.1065 99.391 16.821C98.96 16.67 98.686 16.3631 98.686 15.8915C98.686 15.4433 98.935 15.1354 99.347 14.9707C100.265 14.6044 101.199 14.7096 102.119 14.959C102.438 15.0458 102.176 15.3751 102.259 15.567C102.388 16.0601 102.084 16.3163 101.726 16.5414Z" fill="black"/>
<path d="M118.188 18.447C118.188 18.6565 118.132 18.7393 117.903 18.7393C117.099 18.7286 116.295 18.7228 115.491 18.7393C115.177 18.7452 115.202 18.5727 115.202 18.3701C115.202 16.7536 115.196 15.1381 115.202 13.5226C115.202 12.749 115.096 12.0143 114.267 11.6987C113.36 11.3537 112.476 11.4668 111.662 12.0368C111.463 12.1741 111.463 12.3466 111.463 12.5424C111.463 14.4619 111.456 16.3824 111.473 18.3019C111.473 18.639 111.395 18.7549 111.035 18.7403C110.317 18.713 109.596 18.714 108.878 18.7403C108.548 18.753 108.486 18.6429 108.487 18.3457C108.5 16.1495 108.487 13.9543 108.505 11.7581C108.505 11.3732 108.388 11.2894 108.032 11.3148C107.624 11.344 107.214 11.3148 106.805 11.3245C106.597 11.3303 106.493 11.2846 106.501 11.0527C106.516 10.584 106.513 10.1134 106.501 9.64473C106.501 9.43433 106.563 9.35243 106.789 9.35243C108.088 9.36023 109.386 9.36023 110.683 9.35243C110.904 9.35243 110.969 9.43823 111.004 9.63203C111.064 9.97013 111.155 10.3034 111.245 10.6892C112.567 9.23943 114.144 8.83793 115.958 9.35923C117.271 9.73733 118.125 10.8081 118.147 12.1488C118.203 14.2485 118.179 16.3493 118.188 18.447Z" fill="black"/>
<path d="M81.9013 11.5765C80.8706 9.82268 79.1783 9.19328 77.4145 9.14648C76.6753 9.15718 76.157 9.19718 75.6486 9.32668C73.8519 9.78858 72.5645 10.8233 72.0671 12.6045C71.5538 14.4431 71.8572 16.1667 73.3057 17.5308C74.6756 18.8208 76.3898 19.1463 78.2163 18.8696C82.4733 18.2206 83.4015 14.1284 81.9013 11.5765ZM79.5554 14.0874C79.5275 15.0462 79.2301 15.8734 78.3277 16.384C77.2125 17.0154 75.7083 16.5642 75.1542 15.4272C74.6806 14.4528 74.7045 13.4785 75.2308 12.5285C75.7043 11.673 76.7489 11.2618 77.7766 11.4966C78.7356 11.7129 79.4599 12.5986 79.5544 13.6753C79.5653 13.8117 79.5554 13.9501 79.5554 14.0874Z" fill="black"/>
<path d="M70.9332 9.74371C70.9011 10.3226 70.8987 10.9028 70.9263 11.4819C70.9342 11.7742 70.9263 11.9184 70.5283 11.8492C69.6131 11.6904 68.7018 11.743 67.8512 12.1747C67.2612 12.4728 66.92 12.8733 66.9449 13.6021C66.9976 15.1874 66.9538 16.7766 66.9668 18.3628C66.9668 18.6454 66.9001 18.7525 66.5937 18.7409C65.8615 18.7194 65.1273 18.7184 64.3951 18.7409C64.0668 18.7516 63.9703 18.6678 63.9732 18.3345C63.9892 16.1403 63.9732 13.95 63.9902 11.7518C63.9902 11.4137 63.9165 11.289 63.5554 11.3153C63.1356 11.3465 62.7108 11.3153 62.288 11.326C62.0691 11.3338 61.9895 11.2646 61.9895 11.0454C62.0024 10.5767 62.0014 10.1071 61.9895 9.63841C61.9895 9.42311 62.0621 9.34611 62.288 9.35201C63.5839 9.36041 64.8806 9.36041 66.1778 9.35201C66.4057 9.35201 66.4673 9.44941 66.5042 9.63361C66.5907 10.0525 66.6902 10.4686 66.7738 10.8876C66.7956 10.9996 66.8126 11.1029 66.917 11.1691C67.5826 9.81971 68.5088 9.10161 70.3851 9.17561C70.7651 9.19221 70.9691 9.30811 70.9332 9.74371Z" fill="black"/>
<path d="M12.9669 0.0200195C12.9669 0.0726195 12.961 0.12522 12.958 0.17692C12.8167 0.0327199 12.6824 0.0707193 12.5511 0.195419C12.5451 0.138919 12.5401 0.0814195 12.5342 0.0249195L12.9669 0.0200195Z" fill="black"/>
<path d="M12.9689 24.9684H12.5352C12.5431 24.9217 12.5501 24.871 12.557 24.8262C12.6874 24.9577 12.8187 24.9879 12.955 24.8349C12.958 24.8788 12.9629 24.9236 12.9689 24.9684Z" fill="black"/>
<path d="M0.246939 12.2515C0.222069 12.2992 0.196199 12.3489 0.169339 12.3947C0.00916947 12.459 -0.00973053 12.3849 0.0260795 12.2554L0.246939 12.2515Z" fill="black"/>
<path d="M0.24589 12.7637L0.0260304 12.7579C0.00513038 12.677 -0.00381963 12.601 0.0976504 12.563L0.24589 12.7637Z" fill="black"/>
<path d="M25.4753 12.8383L25.2913 12.7408L25.4047 12.5723C25.534 12.6346 25.4922 12.7399 25.4753 12.8383Z" fill="black"/>
<path d="M25.4047 12.4381L25.2913 12.2685L25.4743 12.2539C25.4992 12.3328 25.5101 12.4069 25.4047 12.4381Z" fill="black"/>
</g>
</svg>
