<svg width="131" height="26" viewBox="0 0 131 26" fill="none" xmlns="http://www.w3.org/2000/svg">
<mask id="mask0_4_188" style="mask-type:luminance" maskUnits="userSpaceOnUse" x="0" y="0" width="131" height="26">
<path d="M130.599 0H0.564453V25.9153H130.599V0Z" fill="white"/>
</mask>
<g mask="url(#mask0_4_188)">
<path d="M30.8553 20.3506C29.0404 22.151 27.2327 23.9592 25.4323 25.7752C25.2405 25.967 25.1337 25.952 24.9486 25.7668C23.9294 24.736 22.8952 23.7168 21.866 22.6926C18.6999 19.5432 15.5306 16.3972 12.3579 13.2545C12.0743 12.9743 12.081 12.8359 12.3579 12.5673C13.8592 11.1277 15.3471 9.6682 16.8384 8.2153C16.9151 8.1402 16.9952 8.0685 17.0902 7.9834C17.1787 8.0618 17.2571 8.1202 17.3138 8.1852C17.7158 8.5856 18.1061 8.9993 18.5231 9.3846C18.7366 9.5798 18.6899 9.6932 18.5048 9.8683C17.5356 10.8191 16.5831 11.785 15.609 12.7291C15.3905 12.9409 15.3805 13.0627 15.609 13.2779C18.6849 16.3383 21.7536 19.407 24.8151 22.484C25.0387 22.7076 25.1488 22.6926 25.3689 22.4757C26.6083 21.218 27.8711 19.9736 29.1071 18.7175C29.344 18.474 29.4774 18.484 29.6959 18.7175C30.0546 19.1145 30.4416 19.4898 30.8302 19.8568C31.0137 20.0386 31.0621 20.1487 30.8553 20.3506Z" fill="#2D9A44"/>
<path d="M26.4631 13.2597C24.9407 14.7242 23.4283 16.1983 21.926 17.6818C21.7091 17.8969 21.5923 17.9236 21.3721 17.6818C21.0135 17.2831 20.6299 16.9044 20.2362 16.5441C20.0193 16.3473 20.0227 16.2355 20.2362 16.032C21.1987 15.0979 22.1361 14.1371 23.1053 13.2113C23.3738 12.9544 23.3338 12.8276 23.0919 12.5874C20.0482 9.56818 17.0112 6.54008 13.9809 3.50308C13.8825 3.40458 13.7757 3.31118 13.6473 3.19278C13.5505 3.28618 13.4604 3.35958 13.377 3.45128C12.126 4.69908 10.8749 5.94348 9.6322 7.20448C9.412 7.42798 9.2769 7.48138 9.045 7.21948C8.678 6.80918 8.276 6.42548 7.87735 6.05188C7.71054 5.88508 7.67551 5.78668 7.86234 5.60148C9.6894 3.78328 11.5077 1.96118 13.317 0.13518C13.4971 -0.04662 13.6106 -0.03162 13.764 0.13518C13.8574 0.24528 13.9725 0.333679 14.0759 0.433779L24.2012 10.519C24.9485 11.2646 25.7025 12.0203 26.4581 12.7442C26.66 12.9377 26.6883 13.0445 26.4631 13.2597Z" fill="#076DA3"/>
<path d="M97.6352 15.048C97.5418 13.9304 96.8262 13.1214 95.6152 12.7661C95.5118 12.736 95.39 12.7661 95.2716 12.6126C95.3717 12.5659 95.4551 12.5225 95.5385 12.4842C96.581 12.0004 97.0764 11.1497 97.013 9.97372C96.958 8.91782 96.3909 8.18882 95.32 7.82522C95.0527 7.73222 94.7765 7.66682 94.4959 7.63002C92.8278 7.43152 91.1598 7.58502 89.4917 7.53332C89.2015 7.53332 89.2548 7.71342 89.2548 7.87692C89.2548 11.2531 89.2548 14.6276 89.2548 18.0055C89.2548 18.3391 89.3599 18.3942 89.6568 18.3925C91.0764 18.3808 92.4926 18.3925 93.9154 18.3825C94.627 18.3898 95.3318 18.2442 95.9822 17.9555C97.1465 17.415 97.7453 16.3708 97.6352 15.048ZM90.7511 10.3857C90.7511 9.92872 90.7511 9.47162 90.7511 9.01292C90.7511 8.86782 90.7511 8.72262 90.9613 8.72762C92.0455 8.75932 93.1381 8.62252 94.2123 8.84612C95.0981 9.03122 95.4884 9.49332 95.5001 10.2823C95.5151 11.2231 95.1381 11.7619 94.2724 11.9954C93.3733 12.2373 92.4525 12.0972 91.5418 12.1205C90.7511 12.1405 90.7511 12.1205 90.7511 11.3315V10.3857ZM96.0239 15.9454C95.797 16.6127 95.2816 16.958 94.6277 17.0797C93.4117 17.3033 92.1773 17.1598 90.9579 17.1965C90.7344 17.1965 90.7578 17.053 90.7561 16.9113V15.2565C90.7561 14.706 90.7561 14.1539 90.7561 13.6034C90.7561 13.4633 90.7294 13.3065 90.9529 13.3149C92.179 13.3616 93.415 13.1831 94.6227 13.4316C95.8304 13.6802 96.4292 14.7444 96.0239 15.9454Z" fill="#076DA3"/>
<path d="M79.8453 13.7413L80.2073 13.6312C81.7086 13.1708 82.5093 12.0565 82.4509 10.4835C82.3958 9.00732 81.5318 8.00642 79.9955 7.67282C79.6124 7.58512 79.2207 7.54092 78.8278 7.54102C77.2198 7.54102 75.6101 7.55772 74.002 7.54102C73.62 7.54102 73.5016 7.61442 73.5016 8.02142C73.5199 11.1291 73.5116 14.235 73.5116 17.3443C73.5116 18.4203 73.5116 18.4052 74.5992 18.4102C74.9478 18.4102 75.0162 18.2918 75.0129 17.9749C74.9979 16.7455 75.0129 15.5145 74.9995 14.2851C74.9995 13.9715 75.0879 13.8847 75.3965 13.8914C76.2473 13.9114 77.0997 13.9164 77.9504 13.8914C78.0802 13.8792 78.2106 13.9076 78.3236 13.9727C78.4366 14.0379 78.5265 14.1365 78.5809 14.2551C79.3616 15.5328 80.1606 16.7972 80.9579 18.0633C81.053 18.2167 81.1131 18.4102 81.36 18.3969C81.8437 18.3969 82.3258 18.3969 82.9013 18.3969L79.8453 13.7413ZM75.2164 12.6887C75.0095 12.6887 75.0045 12.5486 75.0045 12.4001C75.0045 11.2825 75.0045 10.1632 75.0045 9.04402C75.0045 8.79042 75.0963 8.71871 75.3382 8.72371C75.967 8.73541 76.5976 8.72371 77.3399 8.72371C77.932 8.73701 78.6443 8.66861 79.3416 8.81541C80.4192 9.04401 80.9446 9.66112 80.9446 10.662C80.9446 11.6979 80.3691 12.4619 79.3216 12.6103C77.9637 12.8055 76.5859 12.662 75.2164 12.6887Z" fill="#076DA3"/>
<path d="M119.042 8.5322C119.042 7.4362 119.042 7.4429 117.934 7.5313C117.724 7.548 117.669 7.6181 117.671 7.8149C117.706 10.5289 117.61 13.2412 117.724 15.9535C117.724 16.1003 117.819 16.3155 117.649 16.3772C117.479 16.4389 117.424 16.2104 117.347 16.0886C115.771 13.5965 114.161 11.1311 112.66 8.5972C112.159 7.7498 111.612 7.3945 110.658 7.518C110.294 7.563 110.196 7.6331 110.198 7.9984C110.213 11.1677 110.206 14.3371 110.206 17.5065C110.206 18.3839 110.206 18.3605 111.062 18.3922C111.464 18.4056 111.55 18.2805 111.549 17.8918C111.529 15.5248 111.539 13.1578 111.539 10.7908V9.3562C111.675 9.5497 111.766 9.6665 111.846 9.7932C113.414 12.2854 115.015 14.7575 116.525 17.2896C117.025 18.137 117.565 18.5574 118.563 18.4072C118.93 18.3522 119.063 18.3088 119.063 17.9068C119.033 14.7825 119.042 11.6565 119.042 8.5322ZM117.677 16.6007C117.657 16.5599 117.639 16.5182 117.624 16.4756C117.624 16.4756 117.671 16.4539 117.694 16.4406C117.713 16.478 117.729 16.517 117.741 16.5573C117.741 16.5573 117.704 16.584 117.677 16.6007Z" fill="#076DA3"/>
<path d="M51.6562 12.4371C51.5745 9.81148 49.898 7.95828 47.2858 7.62968C45.7145 7.43118 43.6994 7.53288 42.5601 7.53288C42.3033 7.53288 42.2899 7.65799 42.2899 7.85489C42.2899 11.2466 42.2899 14.6384 42.2899 18.0302C42.2899 18.3388 42.4 18.3955 42.6752 18.3955C43.2357 18.3955 43.9997 18.3955 44.6619 18.3955C45.2941 18.3955 45.9247 18.4155 46.5552 18.3955C48.6453 18.3204 50.2584 17.4647 51.1575 15.4997C51.5928 14.5205 51.6879 13.4896 51.6562 12.4371ZM49.6362 15.2261C48.9789 16.4889 47.8847 17.0894 46.5002 17.1711C45.6995 17.2211 44.8921 17.1711 44.0881 17.2028C43.8129 17.2028 43.7895 17.0844 43.7912 16.8692C43.7912 15.5764 43.7912 14.282 43.7912 12.9875C43.7912 11.6931 43.8012 10.4337 43.7912 9.15098C43.7912 8.83738 43.8462 8.70389 44.1965 8.71889C45.1557 8.76229 46.1215 8.66388 47.0723 8.84398C48.8705 9.17758 49.888 10.2502 50.1149 12.0935C50.245 13.1777 50.1499 14.2386 49.6362 15.2261Z" fill="#076DA3"/>
<path d="M130.6 18.3492C130.498 18.3726 130.47 18.3809 130.433 18.3859C129.265 18.5978 128.445 18.1824 127.742 17.1849C126.827 15.8888 125.729 14.7195 124.725 13.4818C124.523 13.2332 124.416 13.2399 124.131 13.4C123.162 13.9488 123.035 14.5677 123.034 15.5935C123.034 16.1924 123.033 17.1716 123.06 17.9589C123.06 18.2691 123.01 18.3993 122.657 18.3959C121.551 18.3959 121.551 18.4059 121.551 17.2883C121.551 14.2124 121.551 11.1348 121.542 8.05706C121.542 7.66846 121.591 7.50496 122.043 7.52336C123.044 7.56336 123.044 7.53496 123.044 8.52416V12.6611C123.836 11.9271 124.712 11.1598 125.531 10.3524C126.395 9.49996 127.215 8.60256 128.051 7.72186C128.093 7.66536 128.147 7.61926 128.21 7.58686C128.272 7.55456 128.341 7.53676 128.411 7.53496C128.912 7.53496 129.412 7.53496 130.008 7.53496C129.352 8.21386 128.768 8.82106 128.173 9.42496C127.369 10.249 126.573 11.083 125.746 11.8821C125.459 12.1573 125.434 12.3124 125.707 12.626C127.25 14.3975 128.767 16.1941 130.291 17.9822C130.401 18.0907 130.483 18.2008 130.6 18.3492Z" fill="#076DA3"/>
<path d="M38.0396 13.1682C36.1492 15.0453 34.2648 16.9291 32.3865 18.8196C32.2047 19.0014 32.0913 19.0431 31.8961 18.838C31.4824 18.4043 31.0537 17.9839 30.61 17.5819C30.3965 17.3867 30.5016 17.2833 30.6501 17.1349C31.9161 15.8838 33.1789 14.6327 34.4416 13.37C34.5167 13.2949 34.6301 13.2516 34.6635 13.0948C34.5834 13.0097 34.4966 12.9046 34.3949 12.8062C33.1255 11.5351 31.8611 10.2573 30.5767 9.00803C30.3248 8.75943 30.3098 8.62103 30.5767 8.38243C31.0454 7.96213 31.4891 7.51003 31.9261 7.04803C32.0929 6.88113 32.1763 6.88113 32.3398 7.04803C34.2303 8.93853 36.1291 10.8289 38.0363 12.7194C38.2098 12.8929 38.2198 12.9897 38.0396 13.1682Z" fill="#2D9A44"/>
<path d="M8.1876 17.5314C7.71223 17.9451 7.27352 18.3988 6.82981 18.8475C6.663 19.0143 6.54791 19.0143 6.37276 18.8475C4.48226 16.9403 2.58677 15.0421 0.686257 13.1527C0.519457 12.9859 0.519457 12.9008 0.686257 12.7407C2.60678 10.8446 4.51896 8.94472 6.4228 7.04082C6.47785 6.98582 6.54123 6.94072 6.60963 6.87402C6.68803 6.94742 6.75809 7.00912 6.82314 7.07422C7.21347 7.46452 7.58879 7.87152 7.9908 8.24192C8.231 8.46042 8.2427 8.58382 8.0008 8.82232C6.78144 10.0117 5.59543 11.2327 4.37439 12.4204C4.09249 12.6973 4.04078 12.8391 4.35938 13.1443C5.65715 14.4021 6.90321 15.6932 8.1843 16.9576C8.4128 17.1811 8.4529 17.3012 8.1876 17.5314Z" fill="#076DA3"/>
<path d="M62.719 17.9263C61.4813 14.8804 60.253 11.8306 59.0342 8.77688C58.5204 7.50578 58.6572 7.50578 57.2794 7.52918C57.1549 7.52778 57.0324 7.56058 56.9253 7.62418C56.8182 7.68768 56.7306 7.77948 56.6722 7.88948C55.2994 11.2857 53.9432 14.6269 52.5504 18.0147C52.4453 18.2716 52.4086 18.4201 52.7756 18.3851C53.0586 18.3592 53.3433 18.3592 53.6263 18.3851C53.8999 18.4101 54.0133 18.2866 54.1017 18.0514C54.417 17.2174 54.7689 16.3834 55.0709 15.5493C55.0958 15.4369 55.1631 15.3384 55.2588 15.2744C55.3545 15.2104 55.4712 15.1858 55.5846 15.2057C56.2635 15.224 56.9424 15.2057 57.6197 15.2057C58.3303 15.2057 59.0409 15.2207 59.7498 15.2057C59.8639 15.1871 59.9808 15.2135 60.0758 15.2795C60.1707 15.3455 60.2363 15.4459 60.2586 15.5593C60.4754 16.1832 60.7273 16.7937 60.9659 17.4109C61.3479 18.3951 61.3495 18.3767 62.4154 18.4001C62.8541 18.4051 62.8641 18.285 62.719 17.9263ZM59.3245 14.0597C58.2202 14.0514 57.1159 14.0597 56.0116 14.0597C55.8182 14.0597 55.653 14.0597 55.7631 13.7845C56.4037 12.1281 57.0859 10.4867 57.6664 8.73348C58.2285 10.4783 58.9258 12.0947 59.5513 13.7378C59.6547 14.0113 59.5847 14.0614 59.3245 14.0597Z" fill="#076DA3"/>
<path d="M108.745 17.8897C107.463 14.7092 106.185 11.5298 104.908 8.35145C104.574 7.53585 104.574 7.53586 103.692 7.53586C103.358 7.53586 102.871 7.51415 102.714 7.91115C101.483 11.0605 100.169 14.1782 98.896 17.3108C98.761 17.6444 98.504 18.1449 98.563 18.29C98.631 18.4685 99.498 18.4018 99.625 18.3884C99.93 18.3534 100.061 18.2933 100.164 18.0131C100.473 17.179 100.831 16.345 101.138 15.511C101.161 15.4134 101.219 15.3278 101.302 15.2713C101.385 15.2148 101.486 15.1914 101.585 15.2057C103.003 15.2168 104.421 15.2168 105.84 15.2057C105.94 15.1912 106.04 15.2147 106.123 15.2717C106.205 15.3287 106.263 15.4148 106.284 15.5126C106.523 16.1615 106.785 16.8021 107.033 17.4476C107.402 18.3951 107.402 18.3951 108.409 18.3934C108.941 18.3851 108.945 18.3851 108.745 17.8897ZM105.36 14.0531C104.258 14.0397 103.155 14.0397 102.051 14.0531C101.707 14.0531 101.749 13.9313 101.84 13.6944C102.464 12.068 103.143 10.465 103.709 8.72186C104.124 9.99286 104.594 11.1573 105.055 12.3233C105.233 12.777 105.4 13.2357 105.584 13.6861C105.682 13.9346 105.694 14.0664 105.36 14.0614V14.0531Z" fill="#076DA3"/>
<path d="M30.8168 6.0216C30.3564 6.452 29.8943 6.884 29.469 7.3561C29.2371 7.6063 29.112 7.5379 28.9102 7.3344C27.7025 6.105 26.4764 4.899 25.2704 3.6696C25.0436 3.4378 24.9168 3.4194 24.6816 3.6696C23.7475 4.6305 22.7916 5.5713 21.8458 6.5187C21.7591 6.6055 21.669 6.6855 21.5706 6.7789C21.4822 6.7005 21.4038 6.6388 21.3454 6.5738C20.9868 6.2168 20.6515 5.8348 20.2662 5.5112C19.9442 5.2426 20.0593 5.0758 20.2912 4.844C21.3143 3.8342 22.3301 2.8195 23.3388 1.7997C23.8842 1.2509 24.433 0.707096 24.9618 0.144996C25.152 -0.0585035 25.2621 -0.0352035 25.4472 0.144996C27.2376 1.9476 29.0342 3.7436 30.8368 5.5329C31.0353 5.7364 31.0003 5.8482 30.8168 6.0216Z" fill="#2D9A44"/>
<path d="M18.5798 20.9427C16.9562 22.5497 15.3437 24.1688 13.7423 25.8002C13.5755 25.967 13.4821 25.9437 13.3303 25.7902C11.5132 23.9731 9.6939 22.1599 7.87235 20.3506C7.78895 20.2688 7.65884 20.2004 7.80563 20.052C8.3394 19.5165 8.8665 18.9744 9.3986 18.4373C9.4415 18.4008 9.4872 18.3679 9.5354 18.3389C9.6255 18.4223 9.7172 18.5057 9.8023 18.5891C11.0317 19.8118 12.2677 21.0261 13.4838 22.2589C13.7206 22.5007 13.8424 22.4857 14.0693 22.2589C15.0017 21.298 15.9625 20.3639 16.905 19.4064C17.1102 19.1979 17.2386 19.1446 17.4588 19.3931C17.8024 19.7834 18.1828 20.1404 18.5598 20.499C18.7182 20.6492 18.7666 20.7543 18.5798 20.9427Z" fill="#076DA3"/>
<path d="M72.1903 7.53617C72.0235 7.96487 71.8734 8.35187 71.7166 8.73727C70.4555 11.8266 69.1967 14.9192 67.9401 18.0151C67.9056 18.1413 67.8262 18.2504 67.7168 18.322C67.6074 18.3936 67.4756 18.4227 67.3462 18.4038C66.2303 18.3888 66.2286 18.4038 65.8133 17.3879C64.54 14.2686 63.2666 11.1504 61.9933 8.03327C61.935 7.88987 61.8883 7.74137 61.8165 7.54457C62.2919 7.54457 63.166 7.54457 63.166 7.54457C63.3795 7.54457 63.4262 7.66627 63.4846 7.81807C64.5772 10.6756 65.7866 13.4913 66.7874 16.3938C66.8425 16.5506 66.8541 16.7274 67.0443 16.8742C67.4863 15.5247 67.9884 14.2286 68.5005 12.9325C69.1594 11.2644 69.8183 9.59627 70.4555 7.91987C70.569 7.62127 70.7057 7.53787 71.031 7.52957C71.1945 7.52457 71.76 7.53617 72.1903 7.53617Z" fill="#076DA3"/>
<path d="M117.679 16.6006C117.659 16.56 117.641 16.5182 117.626 16.4755C117.648 16.4626 117.671 16.4509 117.694 16.4404C117.713 16.4777 117.729 16.5168 117.741 16.5572C117.741 16.5572 117.704 16.5839 117.679 16.6006Z" fill="#076DA3"/>
</g>
</svg>
