<svg width="94" height="24" viewBox="0 0 94 24" fill="none" xmlns="http://www.w3.org/2000/svg">
<mask id="mask0_4_141" style="mask-type:luminance" maskUnits="userSpaceOnUse" x="0" y="0" width="94" height="24">
<path d="M93.8127 0.177734H0V23.8224H93.8127V0.177734Z" fill="white"/>
</mask>
<g mask="url(#mask0_4_141)">
<path d="M69.281 21.096C68.4247 21.6952 67.4627 21.5671 66.5808 21.2943C65.7411 21.0348 65.5477 20.2017 65.47 19.4057C65.4262 18.9603 65.4592 18.5065 65.4485 18.0569C65.3592 14.3194 65.2683 10.582 65.1757 6.8445C65.1757 6.7478 65.1567 6.6511 65.141 6.5064C64.8724 6.5891 64.8294 6.804 64.76 6.9685C63.9897 8.7934 63.007 10.5109 62.1077 12.2705C62.0592 12.3806 62.0172 12.4935 61.9821 12.6085C61.516 13.4929 61.0358 14.369 60.5895 15.2633C60.1969 16.051 59.6439 16.6196 58.7158 16.594C57.8066 16.5683 57.2479 16.0228 56.8388 15.2352C55.6866 13.016 54.3592 10.8902 53.2848 8.6273C53.0608 8.1537 52.8302 7.6834 52.5946 7.1941C52.3012 7.3305 52.4079 7.5619 52.4037 7.7379C52.3156 11.6589 52.2307 15.5796 52.1492 19.5C52.1293 20.4166 51.5516 21.2241 50.7962 21.4117C49.887 21.6381 49.0919 21.3075 48.6473 20.5273C48.434 20.1546 48.3993 19.7363 48.4257 19.3405C48.5406 17.4825 48.4497 15.6212 48.5481 13.7648C48.7084 10.7249 48.739 7.6826 48.796 4.6402C48.8126 3.8062 48.844 2.9649 48.9754 2.1433C49.1192 1.2391 49.7663 0.7449 50.6838 0.7002C51.3152 0.6696 51.95 0.6176 52.5798 0.6498C53.3294 0.6878 54.0146 0.876301 54.403 1.6474C55.6949 4.2096 57.0082 6.766 58.3157 9.3232C58.5381 9.7579 58.7703 10.1877 59.0001 10.6183C59.1447 10.8886 59.2439 10.9357 59.4423 10.6183C60.1721 9.4612 60.6647 8.1859 61.306 6.9817C61.9053 5.8618 62.4284 4.6923 62.9838 3.5418C63.3227 2.8954 63.6583 2.2474 64.0013 1.6036C64.3195 1.0052 64.8493 0.735801 65.5014 0.711001C66.1345 0.687001 66.7692 0.696101 67.4024 0.697701C68.657 0.697701 69.3909 1.3738 69.4562 2.6276C69.5265 3.9501 69.5554 5.2807 69.6042 6.6081C69.7596 10.8508 69.9155 15.095 70.072 19.3405C70.0992 20.0587 69.8893 20.6703 69.281 21.096Z" fill="url(#paint0_linear_4_141)"/>
<path d="M93.359 6.95572C92.789 4.74972 91.512 3.00252 89.546 1.77272C88.389 1.04532 87.109 0.666823 85.804 0.338723L85.441 0.316424C85.258 0.311424 85.074 0.316423 84.892 0.300623C83.422 0.141123 81.932 0.103124 80.497 0.408124C77.1437 1.12142 74.6451 3.00252 73.2913 6.21432C72.5161 8.05412 72.3574 9.99813 72.5524 11.9817C72.8252 14.7637 73.7715 17.2391 75.7295 19.288C76.3849 19.9732 77.2172 20.4054 77.9702 20.9468C78.005 20.9499 78.0388 20.9603 78.0694 20.9774C79.79 21.7551 81.595 22.0411 83.476 21.9692C87.368 21.8179 90.284 20.0318 92.161 16.6589C93.857 13.6091 94.229 10.3245 93.359 6.95572ZM88.813 11.6858C88.698 13.1685 88.405 14.5901 87.768 15.9307C87.185 17.1581 86.363 18.1706 85.081 18.7408C84.724 18.8995 84.367 19.0425 83.964 18.9979C82.692 19.1632 81.475 19.064 80.403 18.259C80.325 18.2606 80.248 18.239 80.181 18.197C80.115 18.1549 80.062 18.0943 80.03 18.0226L79.909 17.8962C79.365 17.4689 78.8595 17.0101 78.6859 16.2977C78.675 16.2888 78.6664 16.2771 78.6612 16.264C78.656 16.2508 78.6543 16.2365 78.6562 16.2225C78.0685 15.5547 77.9123 14.7025 77.7239 13.8851C77.2387 11.7965 77.1743 9.68152 77.7322 7.60372C78.095 6.25072 78.6083 4.93322 79.897 4.13232V4.13982C79.941 4.10092 79.986 4.06372 80.032 4.02572C80.514 3.42572 81.235 3.26532 81.916 3.13972C82.766 2.98352 83.652 2.87112 84.491 3.26952C84.996 3.26952 85.401 3.52902 85.802 3.78352C86.541 4.14062 87.082 4.74152 87.496 5.40272C88.702 7.31772 88.987 9.44592 88.814 11.6825L88.813 11.6858Z" fill="url(#paint1_linear_4_141)"/>
<path d="M44.6627 13.958C44.6503 15.5482 44.2734 17.0616 43.4386 18.4451C42.1559 20.5701 40.1747 21.6148 37.8109 21.8652C36.0529 22.0512 34.2503 22.1371 32.5056 21.671C29.8368 20.9569 27.9821 19.3386 27.1647 16.6434C26.8906 15.7727 26.7178 14.8733 26.6498 13.963C26.6459 10.1578 26.6423 6.35281 26.639 2.54811C26.639 2.46551 26.639 2.38281 26.6432 2.30021L26.6506 2.17871C27.3341 0.452106 29.7541 -0.00749248 31.0121 1.34391C31.3667 1.72411 31.4096 2.18031 31.4105 2.65141C31.4171 6.16901 31.4105 9.68661 31.4229 13.2034C31.4229 14.3556 31.6039 15.4656 32.2709 16.4566C32.804 17.2484 33.5635 17.7145 34.4437 17.9385C35.9199 18.3137 37.3274 18.1302 38.5184 17.0905C39.5218 16.2152 39.9078 15.0408 39.9169 13.7564C39.9417 10.0751 39.9309 6.39381 39.9284 2.71261C39.9284 2.04391 40.1276 1.47281 40.6516 1.03641C41.4856 0.343007 43.7221 0.536407 44.3891 1.38111C44.6255 1.67941 44.6759 2.05721 44.6759 2.42411C44.68 6.26901 44.6941 10.1139 44.6627 13.958Z" fill="url(#paint2_linear_4_141)"/>
<path d="M22.6818 4.3688C22.6769 9.4816 22.6769 14.5946 22.6818 19.7079C22.6818 20.6535 21.9967 21.3213 21.0553 21.3238C20.5649 21.3238 20.0742 21.3207 19.5833 21.3147C18.4997 21.299 17.9104 20.7221 17.9096 19.6517C17.9096 17.3607 17.8947 15.0696 17.9335 12.7802C17.9443 12.1652 17.7757 11.9694 17.1492 11.9685C14.6143 11.9685 12.0794 11.9206 9.54529 11.8611C9.06509 11.8495 8.89819 11.9669 8.91969 12.4669C9.04199 15.2522 9.39239 17.9921 10.4504 20.5981C10.5718 20.8965 10.7653 21.1659 10.9248 21.4494C10.7653 21.8478 10.4958 21.7131 10.2189 21.6048C8.83369 21.0609 7.97249 19.9708 7.23439 18.7533C6.29049 17.2045 5.76319 15.4977 5.41529 13.7331C5.10089 12.217 4.98699 10.6662 5.07639 9.1204C5.14909 8.0178 5.31109 7.1103 5.45489 6.0466C5.47539 5.8972 5.50629 5.7495 5.54749 5.6044C5.56569 5.5416 5.59209 5.4813 5.61119 5.4193C5.72859 5.0016 5.87439 4.5923 6.04749 4.1944C6.14199 3.9283 6.26219 3.6719 6.40629 3.4291C6.47939 3.2974 6.56879 3.1755 6.67239 3.0662C6.83769 2.891 6.99639 2.7092 7.15749 2.5282C7.39229 2.2653 7.66309 2.0368 7.96169 1.8496C8.39149 1.5802 8.84109 1.3537 9.36679 1.2711C9.91309 1.1884 10.028 1.2793 9.84779 1.7934C9.16099 3.7878 8.99159 5.8557 8.91719 7.9434C8.89569 8.5468 9.10729 8.7047 9.68829 8.6989C12.2042 8.6741 14.7193 8.6865 17.2351 8.7047C17.6162 8.7047 17.8914 8.6551 17.8906 8.2088C17.8906 6.4334 18.1708 4.6606 17.9302 2.8836C17.8897 2.586 17.8269 2.2885 17.5608 2.1455C17.0566 1.8761 17.3244 1.6389 17.5608 1.4083C18.8733 0.137899 21.023 0.483399 22.0239 2.1124C22.4527 2.787 22.6809 3.5695 22.6818 4.3688Z" fill="url(#paint3_linear_4_141)"/>
<path d="M2.02319 17.1106C2.23229 18.0686 2.8291 18.8042 3.3539 19.5902C4.0647 20.6555 4.57139 21.4911 5.81109 22.0193C5.86479 22.0482 6.2335 22.2672 6.2872 22.2962L6.48059 22.3788C6.60839 22.4104 6.72879 22.4666 6.83519 22.5441C6.92279 22.6061 7.00869 22.6408 7.07729 22.5317C7.22029 22.3044 6.96159 22.2193 6.77319 22.1598C6.68759 22.1292 6.60869 22.0823 6.54089 22.0217C5.77809 21.2853 4.9871 20.5712 4.4234 19.6588C4.0399 19.0381 3.69109 18.3967 3.32749 17.7644V17.7586C3.08609 17.1426 2.84449 16.5271 2.60259 15.9122C2.51999 15.6444 2.47529 15.4816 2.35469 15.1617C2.34809 15.1204 2.34139 15.0981 2.33399 15.0576C2.23249 14.3139 2.08619 13.5769 1.89599 12.8508L1.8455 12.4797C1.8455 11.6631 1.84549 10.8466 1.85219 10.03C1.86129 8.81724 2.23789 7.63564 2.93239 6.64134C3.29769 6.08524 3.7539 5.59464 4.28209 5.18994C4.28209 5.36934 4.30849 5.45864 4.27799 5.52054C3.79109 6.53304 3.66549 7.62404 3.60019 8.72334C3.42169 11.7268 3.95479 14.6171 5.07059 17.4016C5.68709 18.9397 6.44419 20.3985 7.79799 21.4515C8.58139 22.0679 9.4767 22.5268 10.4346 22.8028C10.4883 23.0623 10.2462 23.1896 10.1709 23.3921C8.46419 24.1103 6.77649 23.8599 5.12929 23.2152C2.54389 22.2036 0.967794 20.2315 0.129694 17.652C-0.086006 16.9908 -0.0116051 16.1891 0.175995 15.5609C0.286595 15.177 0.492094 14.8271 0.773594 14.5435C0.899994 14.4187 1.02899 14.3212 1.11329 14.3286C1.19029 14.782 1.32739 15.2231 1.52069 15.6403C1.55659 15.7213 1.5883 15.804 1.6158 15.8882C1.6197 15.8978 1.62409 15.9072 1.62899 15.9163C1.66349 16.0708 1.71189 16.2219 1.77359 16.3676C1.79759 16.4246 1.84719 16.4651 1.85629 16.5255C1.97369 16.9057 2.0216 17.104 2.0216 17.104" fill="url(#paint4_linear_4_141)"/>
</g>
<defs>
<linearGradient id="paint0_linear_4_141" x1="72.2026" y1="17.9561" x2="49.5962" y2="5.8033" gradientUnits="userSpaceOnUse">
<stop offset="0.33" stop-color="#9C8837"/>
<stop offset="0.56" stop-color="#F7E59E"/>
<stop offset="0.6" stop-color="#F0DE96"/>
<stop offset="0.67" stop-color="#DECB80"/>
<stop offset="0.75" stop-color="#C1AD5D"/>
<stop offset="0.79" stop-color="#B39F4D"/>
</linearGradient>
<linearGradient id="paint1_linear_4_141" x1="99.251" y1="20.252" x2="71.229" y2="3.56612" gradientUnits="userSpaceOnUse">
<stop offset="0.33" stop-color="#9C8837"/>
<stop offset="0.56" stop-color="#F7E59E"/>
<stop offset="0.6" stop-color="#F0DE96"/>
<stop offset="0.67" stop-color="#DECB80"/>
<stop offset="0.75" stop-color="#C1AD5D"/>
<stop offset="0.79" stop-color="#B39F4D"/>
</linearGradient>
<linearGradient id="paint2_linear_4_141" x1="46.8788" y1="16.8222" x2="24.206" y2="2.49611" gradientUnits="userSpaceOnUse">
<stop offset="0.33" stop-color="#9C8837"/>
<stop offset="0.56" stop-color="#F7E59E"/>
<stop offset="0.6" stop-color="#F0DE96"/>
<stop offset="0.67" stop-color="#DECB80"/>
<stop offset="0.75" stop-color="#C1AD5D"/>
<stop offset="0.79" stop-color="#B39F4D"/>
</linearGradient>
<linearGradient id="paint3_linear_4_141" x1="18.3346" y1="13.4867" x2="3.92399" y2="2.5096" gradientUnits="userSpaceOnUse">
<stop offset="0.33" stop-color="#9C8837"/>
<stop offset="0.56" stop-color="#F7E59E"/>
<stop offset="0.6" stop-color="#F0DE96"/>
<stop offset="0.67" stop-color="#DECB80"/>
<stop offset="0.75" stop-color="#C1AD5D"/>
<stop offset="0.79" stop-color="#B39F4D"/>
</linearGradient>
<linearGradient id="paint4_linear_4_141" x1="12.7494" y1="20.5824" x2="-1.7658" y2="9.70254" gradientUnits="userSpaceOnUse">
<stop offset="0.33" stop-color="#9C8837"/>
<stop offset="0.56" stop-color="#F7E59E"/>
<stop offset="0.6" stop-color="#F0DE96"/>
<stop offset="0.67" stop-color="#DECB80"/>
<stop offset="0.75" stop-color="#C1AD5D"/>
<stop offset="0.79" stop-color="#B39F4D"/>
</linearGradient>
</defs>
</svg>
