<svg width="136" height="30" viewBox="0 0 136 30" fill="none" xmlns="http://www.w3.org/2000/svg">
<mask id="mask0_4_216" style="mask-type:luminance" maskUnits="userSpaceOnUse" x="0" y="0" width="136" height="30">
<path d="M136 0H0V29.0132H136V0Z" fill="white"/>
</mask>
<g mask="url(#mask0_4_216)">
<path d="M136 0H0V29.0132H136V0Z" fill="#FDC100"/>
<path d="M9.86946 19.5496V14.1593H8.51158V11.4017H9.86946V8.49512H13.0948V11.4017H15.7682V14.1593H13.0948V19.0195C13.0948 19.7623 13.4129 20.1229 14.1346 20.1229C14.6907 20.1254 15.2384 19.9868 15.7264 19.7199V22.3084C15.0465 22.7114 14.2618 22.9659 13.179 22.9659C11.2068 22.9659 9.86946 22.1805 9.86946 19.5496Z" fill="black"/>
<path d="M25.1892 16.1963C25.0021 14.7536 24.15 13.7775 22.7922 13.7775C21.4567 13.7775 20.5835 14.7324 20.334 16.1963H25.1892ZM17.1692 17.1089C17.1692 13.8623 19.482 11.189 22.7922 11.189C26.5901 11.189 28.3297 14.1386 28.3297 17.364C28.3297 17.6178 28.3085 17.9147 28.2873 18.2129H20.3727C20.6914 19.6768 21.71 20.4403 23.1514 20.4403C24.2336 20.4403 25.0183 20.1009 25.9096 19.2732L27.7565 20.9074C26.6961 22.2223 25.1674 23.0282 23.109 23.0282C19.6934 23.0282 17.1679 20.6305 17.1679 17.1082L17.1692 17.1089Z" fill="black"/>
<path d="M32.8462 17.0032L29.0052 11.4014H32.4639L34.5858 14.7115L36.729 11.4014H40.1022L36.2618 16.9395L40.2725 22.7746H36.8138L34.5222 19.2312L32.2306 22.7746H28.8568L32.8462 17.0032Z" fill="black"/>
<path d="M41.7325 11.4017H44.9578V13.014C45.7001 12.0585 46.655 11.189 48.2886 11.189C50.7293 11.189 52.1508 12.802 52.1508 15.4117V22.7718H48.9254V16.4302C48.9254 14.9021 48.2037 14.1174 46.9744 14.1174C45.745 14.1174 44.9584 14.9021 44.9584 16.4302V22.773H41.7325V11.4017Z" fill="black"/>
<path d="M63.2471 17.1089C63.2471 15.4329 62.0376 13.9683 60.2531 13.9683C58.4062 13.9683 57.3035 15.3905 57.3035 17.1089C57.3035 18.7849 58.5129 20.2494 60.2974 20.2494C62.1399 20.2494 63.2471 18.8273 63.2471 17.1089ZM54.123 17.1089C54.123 13.8411 56.7539 11.189 60.298 11.189C63.8203 11.189 66.43 13.7987 66.43 17.1089C66.43 20.376 63.7991 23.0288 60.255 23.0288C56.7321 23.0288 54.1211 20.4191 54.1211 17.1089H54.123Z" fill="black"/>
<path d="M68.4923 11.4017H71.7171V13.014C72.4599 12.0585 73.4361 11.189 75.0697 11.189C76.5554 11.189 77.68 11.8464 78.2738 12.9922C79.2718 11.8252 80.4569 11.189 82.0088 11.189C84.4064 11.189 85.8485 12.6317 85.8485 15.368V22.773H82.6238V16.4302C82.6238 14.9021 81.9439 14.1174 80.7351 14.1174C79.5263 14.1174 78.7846 14.9021 78.7846 16.4302V22.773H75.5581V16.4302C75.5581 14.9021 74.8782 14.1174 73.6687 14.1174C72.4593 14.1174 71.7183 14.9021 71.7183 16.4302V22.773H68.4923V11.4017Z" fill="black"/>
<path d="M95.1582 18.7644V18.1918C94.5098 17.9062 93.8083 17.7614 93.0998 17.767C91.7207 17.767 90.8718 18.3191 90.8718 19.38C90.8718 20.2533 91.5929 20.7591 92.6327 20.7591C94.1402 20.7591 95.1582 19.932 95.1582 18.7632V18.7644ZM87.7531 19.4642C87.7531 16.9818 89.6412 15.836 92.3345 15.836C93.2813 15.8275 94.2223 15.9854 95.1145 16.3025V16.1116C95.1145 14.775 94.2868 14.0327 92.6738 14.0327C91.4438 14.0327 90.5737 14.266 89.5339 14.6477L88.7305 12.1865C89.9824 11.6344 91.213 11.2739 93.1435 11.2739C94.9049 11.2739 96.178 11.7405 96.9839 12.547C97.8328 13.3959 98.2151 14.6477 98.2151 16.1759V22.7732H95.0964V21.5438C94.3111 22.417 93.2289 22.9871 91.659 22.9871C89.5158 22.9871 87.755 21.7559 87.755 19.4642H87.7531Z" fill="black"/>
<path d="M100.802 11.4022H104.028V13.6932C104.686 12.1226 105.747 11.1047 107.656 11.1895V14.5633H107.486C105.343 14.5633 104.028 15.8576 104.028 18.5733V22.7736H100.802V11.4022Z" fill="black"/>
<path d="M110.13 19.5496V14.1593H108.771V11.4017H110.13V8.49512H113.356V11.4017H116.029V14.1593H113.356V19.0195C113.356 19.7623 113.673 20.1229 114.395 20.1229C114.951 20.1255 115.499 19.9869 115.987 19.7199V22.3084C115.307 22.7114 114.522 22.9659 113.44 22.9659C111.467 22.9659 110.129 22.1812 110.129 19.5503L110.13 19.5496Z" fill="black"/>
<path d="M128.254 7.5133L126.936 5.2305L124.199 6.8104V3.6499H121.562V6.8104L118.825 5.2305L117.506 7.5133L120.244 9.0939L117.506 10.6744L118.825 12.958L121.562 11.3774V14.5379H124.199V11.3774L126.936 12.958L128.254 10.6744L125.517 9.0939L128.254 7.5133Z" fill="black"/>
</g>
</svg>
